%TF.GenerationSoftware,KiCad,Pcbnew,(5.1.9-0-10_14)*%
%TF.CreationDate,2021-06-18T00:48:09+02:00*%
%TF.ProjectId,V3,56332e6b-6963-4616-945f-706362585858,rev?*%
%TF.SameCoordinates,Original*%
%TF.FileFunction,Paste,Bot*%
%TF.FilePolarity,Positive*%
%FSLAX46Y46*%
G04 Gerber Fmt 4.6, Leading zero omitted, Abs format (unit mm)*
G04 Created by KiCad (PCBNEW (5.1.9-0-10_14)) date 2021-06-18 00:48:09*
%MOMM*%
%LPD*%
G01*
G04 APERTURE LIST*
G04 APERTURE END LIST*
%TO.C,R5*%
G36*
G01*
X188575000Y-77150000D02*
X189825000Y-77150000D01*
G75*
G02*
X190075000Y-77400000I0J-250000D01*
G01*
X190075000Y-78200000D01*
G75*
G02*
X189825000Y-78450000I-250000J0D01*
G01*
X188575000Y-78450000D01*
G75*
G02*
X188325000Y-78200000I0J250000D01*
G01*
X188325000Y-77400000D01*
G75*
G02*
X188575000Y-77150000I250000J0D01*
G01*
G37*
G36*
G01*
X188575000Y-80250000D02*
X189825000Y-80250000D01*
G75*
G02*
X190075000Y-80500000I0J-250000D01*
G01*
X190075000Y-81300000D01*
G75*
G02*
X189825000Y-81550000I-250000J0D01*
G01*
X188575000Y-81550000D01*
G75*
G02*
X188325000Y-81300000I0J250000D01*
G01*
X188325000Y-80500000D01*
G75*
G02*
X188575000Y-80250000I250000J0D01*
G01*
G37*
%TD*%
%TO.C,R6*%
G36*
G01*
X168075000Y-80250000D02*
X169325000Y-80250000D01*
G75*
G02*
X169575000Y-80500000I0J-250000D01*
G01*
X169575000Y-81300000D01*
G75*
G02*
X169325000Y-81550000I-250000J0D01*
G01*
X168075000Y-81550000D01*
G75*
G02*
X167825000Y-81300000I0J250000D01*
G01*
X167825000Y-80500000D01*
G75*
G02*
X168075000Y-80250000I250000J0D01*
G01*
G37*
G36*
G01*
X168075000Y-77150000D02*
X169325000Y-77150000D01*
G75*
G02*
X169575000Y-77400000I0J-250000D01*
G01*
X169575000Y-78200000D01*
G75*
G02*
X169325000Y-78450000I-250000J0D01*
G01*
X168075000Y-78450000D01*
G75*
G02*
X167825000Y-78200000I0J250000D01*
G01*
X167825000Y-77400000D01*
G75*
G02*
X168075000Y-77150000I250000J0D01*
G01*
G37*
%TD*%
%TO.C,R7*%
G36*
G01*
X187325000Y-78450000D02*
X186075000Y-78450000D01*
G75*
G02*
X185825000Y-78200000I0J250000D01*
G01*
X185825000Y-77400000D01*
G75*
G02*
X186075000Y-77150000I250000J0D01*
G01*
X187325000Y-77150000D01*
G75*
G02*
X187575000Y-77400000I0J-250000D01*
G01*
X187575000Y-78200000D01*
G75*
G02*
X187325000Y-78450000I-250000J0D01*
G01*
G37*
G36*
G01*
X187325000Y-81550000D02*
X186075000Y-81550000D01*
G75*
G02*
X185825000Y-81300000I0J250000D01*
G01*
X185825000Y-80500000D01*
G75*
G02*
X186075000Y-80250000I250000J0D01*
G01*
X187325000Y-80250000D01*
G75*
G02*
X187575000Y-80500000I0J-250000D01*
G01*
X187575000Y-81300000D01*
G75*
G02*
X187325000Y-81550000I-250000J0D01*
G01*
G37*
%TD*%
%TO.C,R8*%
G36*
G01*
X166825000Y-81450000D02*
X165575000Y-81450000D01*
G75*
G02*
X165325000Y-81200000I0J250000D01*
G01*
X165325000Y-80400000D01*
G75*
G02*
X165575000Y-80150000I250000J0D01*
G01*
X166825000Y-80150000D01*
G75*
G02*
X167075000Y-80400000I0J-250000D01*
G01*
X167075000Y-81200000D01*
G75*
G02*
X166825000Y-81450000I-250000J0D01*
G01*
G37*
G36*
G01*
X166825000Y-78350000D02*
X165575000Y-78350000D01*
G75*
G02*
X165325000Y-78100000I0J250000D01*
G01*
X165325000Y-77300000D01*
G75*
G02*
X165575000Y-77050000I250000J0D01*
G01*
X166825000Y-77050000D01*
G75*
G02*
X167075000Y-77300000I0J-250000D01*
G01*
X167075000Y-78100000D01*
G75*
G02*
X166825000Y-78350000I-250000J0D01*
G01*
G37*
%TD*%
%TO.C,R9*%
G36*
G01*
X138475000Y-80250000D02*
X139725000Y-80250000D01*
G75*
G02*
X139975000Y-80500000I0J-250000D01*
G01*
X139975000Y-81300000D01*
G75*
G02*
X139725000Y-81550000I-250000J0D01*
G01*
X138475000Y-81550000D01*
G75*
G02*
X138225000Y-81300000I0J250000D01*
G01*
X138225000Y-80500000D01*
G75*
G02*
X138475000Y-80250000I250000J0D01*
G01*
G37*
G36*
G01*
X138475000Y-77150000D02*
X139725000Y-77150000D01*
G75*
G02*
X139975000Y-77400000I0J-250000D01*
G01*
X139975000Y-78200000D01*
G75*
G02*
X139725000Y-78450000I-250000J0D01*
G01*
X138475000Y-78450000D01*
G75*
G02*
X138225000Y-78200000I0J250000D01*
G01*
X138225000Y-77400000D01*
G75*
G02*
X138475000Y-77150000I250000J0D01*
G01*
G37*
%TD*%
%TO.C,R10*%
G36*
G01*
X118475000Y-77400000D02*
X119725000Y-77400000D01*
G75*
G02*
X119975000Y-77650000I0J-250000D01*
G01*
X119975000Y-78450000D01*
G75*
G02*
X119725000Y-78700000I-250000J0D01*
G01*
X118475000Y-78700000D01*
G75*
G02*
X118225000Y-78450000I0J250000D01*
G01*
X118225000Y-77650000D01*
G75*
G02*
X118475000Y-77400000I250000J0D01*
G01*
G37*
G36*
G01*
X118475000Y-80500000D02*
X119725000Y-80500000D01*
G75*
G02*
X119975000Y-80750000I0J-250000D01*
G01*
X119975000Y-81550000D01*
G75*
G02*
X119725000Y-81800000I-250000J0D01*
G01*
X118475000Y-81800000D01*
G75*
G02*
X118225000Y-81550000I0J250000D01*
G01*
X118225000Y-80750000D01*
G75*
G02*
X118475000Y-80500000I250000J0D01*
G01*
G37*
%TD*%
%TO.C,R11*%
G36*
G01*
X137225000Y-81550000D02*
X135975000Y-81550000D01*
G75*
G02*
X135725000Y-81300000I0J250000D01*
G01*
X135725000Y-80500000D01*
G75*
G02*
X135975000Y-80250000I250000J0D01*
G01*
X137225000Y-80250000D01*
G75*
G02*
X137475000Y-80500000I0J-250000D01*
G01*
X137475000Y-81300000D01*
G75*
G02*
X137225000Y-81550000I-250000J0D01*
G01*
G37*
G36*
G01*
X137225000Y-78450000D02*
X135975000Y-78450000D01*
G75*
G02*
X135725000Y-78200000I0J250000D01*
G01*
X135725000Y-77400000D01*
G75*
G02*
X135975000Y-77150000I250000J0D01*
G01*
X137225000Y-77150000D01*
G75*
G02*
X137475000Y-77400000I0J-250000D01*
G01*
X137475000Y-78200000D01*
G75*
G02*
X137225000Y-78450000I-250000J0D01*
G01*
G37*
%TD*%
%TO.C,R12*%
G36*
G01*
X117225000Y-78700000D02*
X115975000Y-78700000D01*
G75*
G02*
X115725000Y-78450000I0J250000D01*
G01*
X115725000Y-77650000D01*
G75*
G02*
X115975000Y-77400000I250000J0D01*
G01*
X117225000Y-77400000D01*
G75*
G02*
X117475000Y-77650000I0J-250000D01*
G01*
X117475000Y-78450000D01*
G75*
G02*
X117225000Y-78700000I-250000J0D01*
G01*
G37*
G36*
G01*
X117225000Y-81800000D02*
X115975000Y-81800000D01*
G75*
G02*
X115725000Y-81550000I0J250000D01*
G01*
X115725000Y-80750000D01*
G75*
G02*
X115975000Y-80500000I250000J0D01*
G01*
X117225000Y-80500000D01*
G75*
G02*
X117475000Y-80750000I0J-250000D01*
G01*
X117475000Y-81550000D01*
G75*
G02*
X117225000Y-81800000I-250000J0D01*
G01*
G37*
%TD*%
%TO.C,R13*%
G36*
G01*
X237775000Y-79900000D02*
X239025000Y-79900000D01*
G75*
G02*
X239275000Y-80150000I0J-250000D01*
G01*
X239275000Y-80950000D01*
G75*
G02*
X239025000Y-81200000I-250000J0D01*
G01*
X237775000Y-81200000D01*
G75*
G02*
X237525000Y-80950000I0J250000D01*
G01*
X237525000Y-80150000D01*
G75*
G02*
X237775000Y-79900000I250000J0D01*
G01*
G37*
G36*
G01*
X237775000Y-76800000D02*
X239025000Y-76800000D01*
G75*
G02*
X239275000Y-77050000I0J-250000D01*
G01*
X239275000Y-77850000D01*
G75*
G02*
X239025000Y-78100000I-250000J0D01*
G01*
X237775000Y-78100000D01*
G75*
G02*
X237525000Y-77850000I0J250000D01*
G01*
X237525000Y-77050000D01*
G75*
G02*
X237775000Y-76800000I250000J0D01*
G01*
G37*
%TD*%
%TO.C,R14*%
G36*
G01*
X217275000Y-76600000D02*
X218525000Y-76600000D01*
G75*
G02*
X218775000Y-76850000I0J-250000D01*
G01*
X218775000Y-77650000D01*
G75*
G02*
X218525000Y-77900000I-250000J0D01*
G01*
X217275000Y-77900000D01*
G75*
G02*
X217025000Y-77650000I0J250000D01*
G01*
X217025000Y-76850000D01*
G75*
G02*
X217275000Y-76600000I250000J0D01*
G01*
G37*
G36*
G01*
X217275000Y-79700000D02*
X218525000Y-79700000D01*
G75*
G02*
X218775000Y-79950000I0J-250000D01*
G01*
X218775000Y-80750000D01*
G75*
G02*
X218525000Y-81000000I-250000J0D01*
G01*
X217275000Y-81000000D01*
G75*
G02*
X217025000Y-80750000I0J250000D01*
G01*
X217025000Y-79950000D01*
G75*
G02*
X217275000Y-79700000I250000J0D01*
G01*
G37*
%TD*%
%TO.C,R15*%
G36*
G01*
X236425000Y-81200000D02*
X235175000Y-81200000D01*
G75*
G02*
X234925000Y-80950000I0J250000D01*
G01*
X234925000Y-80150000D01*
G75*
G02*
X235175000Y-79900000I250000J0D01*
G01*
X236425000Y-79900000D01*
G75*
G02*
X236675000Y-80150000I0J-250000D01*
G01*
X236675000Y-80950000D01*
G75*
G02*
X236425000Y-81200000I-250000J0D01*
G01*
G37*
G36*
G01*
X236425000Y-78100000D02*
X235175000Y-78100000D01*
G75*
G02*
X234925000Y-77850000I0J250000D01*
G01*
X234925000Y-77050000D01*
G75*
G02*
X235175000Y-76800000I250000J0D01*
G01*
X236425000Y-76800000D01*
G75*
G02*
X236675000Y-77050000I0J-250000D01*
G01*
X236675000Y-77850000D01*
G75*
G02*
X236425000Y-78100000I-250000J0D01*
G01*
G37*
%TD*%
%TO.C,R16*%
G36*
G01*
X216025000Y-77900000D02*
X214775000Y-77900000D01*
G75*
G02*
X214525000Y-77650000I0J250000D01*
G01*
X214525000Y-76850000D01*
G75*
G02*
X214775000Y-76600000I250000J0D01*
G01*
X216025000Y-76600000D01*
G75*
G02*
X216275000Y-76850000I0J-250000D01*
G01*
X216275000Y-77650000D01*
G75*
G02*
X216025000Y-77900000I-250000J0D01*
G01*
G37*
G36*
G01*
X216025000Y-81000000D02*
X214775000Y-81000000D01*
G75*
G02*
X214525000Y-80750000I0J250000D01*
G01*
X214525000Y-79950000D01*
G75*
G02*
X214775000Y-79700000I250000J0D01*
G01*
X216025000Y-79700000D01*
G75*
G02*
X216275000Y-79950000I0J-250000D01*
G01*
X216275000Y-80750000D01*
G75*
G02*
X216025000Y-81000000I-250000J0D01*
G01*
G37*
%TD*%
%TO.C,R17*%
G36*
G01*
X181925000Y-112050000D02*
X180675000Y-112050000D01*
G75*
G02*
X180425000Y-111800000I0J250000D01*
G01*
X180425000Y-111000000D01*
G75*
G02*
X180675000Y-110750000I250000J0D01*
G01*
X181925000Y-110750000D01*
G75*
G02*
X182175000Y-111000000I0J-250000D01*
G01*
X182175000Y-111800000D01*
G75*
G02*
X181925000Y-112050000I-250000J0D01*
G01*
G37*
G36*
G01*
X181925000Y-115150000D02*
X180675000Y-115150000D01*
G75*
G02*
X180425000Y-114900000I0J250000D01*
G01*
X180425000Y-114100000D01*
G75*
G02*
X180675000Y-113850000I250000J0D01*
G01*
X181925000Y-113850000D01*
G75*
G02*
X182175000Y-114100000I0J-250000D01*
G01*
X182175000Y-114900000D01*
G75*
G02*
X181925000Y-115150000I-250000J0D01*
G01*
G37*
%TD*%
%TO.C,R18*%
G36*
G01*
X163925000Y-115250000D02*
X162675000Y-115250000D01*
G75*
G02*
X162425000Y-115000000I0J250000D01*
G01*
X162425000Y-114200000D01*
G75*
G02*
X162675000Y-113950000I250000J0D01*
G01*
X163925000Y-113950000D01*
G75*
G02*
X164175000Y-114200000I0J-250000D01*
G01*
X164175000Y-115000000D01*
G75*
G02*
X163925000Y-115250000I-250000J0D01*
G01*
G37*
G36*
G01*
X163925000Y-112150000D02*
X162675000Y-112150000D01*
G75*
G02*
X162425000Y-111900000I0J250000D01*
G01*
X162425000Y-111100000D01*
G75*
G02*
X162675000Y-110850000I250000J0D01*
G01*
X163925000Y-110850000D01*
G75*
G02*
X164175000Y-111100000I0J-250000D01*
G01*
X164175000Y-111900000D01*
G75*
G02*
X163925000Y-112150000I-250000J0D01*
G01*
G37*
%TD*%
%TO.C,R19*%
G36*
G01*
X183175000Y-110850000D02*
X184425000Y-110850000D01*
G75*
G02*
X184675000Y-111100000I0J-250000D01*
G01*
X184675000Y-111900000D01*
G75*
G02*
X184425000Y-112150000I-250000J0D01*
G01*
X183175000Y-112150000D01*
G75*
G02*
X182925000Y-111900000I0J250000D01*
G01*
X182925000Y-111100000D01*
G75*
G02*
X183175000Y-110850000I250000J0D01*
G01*
G37*
G36*
G01*
X183175000Y-113950000D02*
X184425000Y-113950000D01*
G75*
G02*
X184675000Y-114200000I0J-250000D01*
G01*
X184675000Y-115000000D01*
G75*
G02*
X184425000Y-115250000I-250000J0D01*
G01*
X183175000Y-115250000D01*
G75*
G02*
X182925000Y-115000000I0J250000D01*
G01*
X182925000Y-114200000D01*
G75*
G02*
X183175000Y-113950000I250000J0D01*
G01*
G37*
%TD*%
%TO.C,R20*%
G36*
G01*
X159975000Y-113850000D02*
X161225000Y-113850000D01*
G75*
G02*
X161475000Y-114100000I0J-250000D01*
G01*
X161475000Y-114900000D01*
G75*
G02*
X161225000Y-115150000I-250000J0D01*
G01*
X159975000Y-115150000D01*
G75*
G02*
X159725000Y-114900000I0J250000D01*
G01*
X159725000Y-114100000D01*
G75*
G02*
X159975000Y-113850000I250000J0D01*
G01*
G37*
G36*
G01*
X159975000Y-110750000D02*
X161225000Y-110750000D01*
G75*
G02*
X161475000Y-111000000I0J-250000D01*
G01*
X161475000Y-111800000D01*
G75*
G02*
X161225000Y-112050000I-250000J0D01*
G01*
X159975000Y-112050000D01*
G75*
G02*
X159725000Y-111800000I0J250000D01*
G01*
X159725000Y-111000000D01*
G75*
G02*
X159975000Y-110750000I250000J0D01*
G01*
G37*
%TD*%
%TO.C,R21*%
G36*
G01*
X136225000Y-111950000D02*
X134975000Y-111950000D01*
G75*
G02*
X134725000Y-111700000I0J250000D01*
G01*
X134725000Y-110900000D01*
G75*
G02*
X134975000Y-110650000I250000J0D01*
G01*
X136225000Y-110650000D01*
G75*
G02*
X136475000Y-110900000I0J-250000D01*
G01*
X136475000Y-111700000D01*
G75*
G02*
X136225000Y-111950000I-250000J0D01*
G01*
G37*
G36*
G01*
X136225000Y-115050000D02*
X134975000Y-115050000D01*
G75*
G02*
X134725000Y-114800000I0J250000D01*
G01*
X134725000Y-114000000D01*
G75*
G02*
X134975000Y-113750000I250000J0D01*
G01*
X136225000Y-113750000D01*
G75*
G02*
X136475000Y-114000000I0J-250000D01*
G01*
X136475000Y-114800000D01*
G75*
G02*
X136225000Y-115050000I-250000J0D01*
G01*
G37*
%TD*%
%TO.C,R22*%
G36*
G01*
X115325000Y-115050000D02*
X114075000Y-115050000D01*
G75*
G02*
X113825000Y-114800000I0J250000D01*
G01*
X113825000Y-114000000D01*
G75*
G02*
X114075000Y-113750000I250000J0D01*
G01*
X115325000Y-113750000D01*
G75*
G02*
X115575000Y-114000000I0J-250000D01*
G01*
X115575000Y-114800000D01*
G75*
G02*
X115325000Y-115050000I-250000J0D01*
G01*
G37*
G36*
G01*
X115325000Y-111950000D02*
X114075000Y-111950000D01*
G75*
G02*
X113825000Y-111700000I0J250000D01*
G01*
X113825000Y-110900000D01*
G75*
G02*
X114075000Y-110650000I250000J0D01*
G01*
X115325000Y-110650000D01*
G75*
G02*
X115575000Y-110900000I0J-250000D01*
G01*
X115575000Y-111700000D01*
G75*
G02*
X115325000Y-111950000I-250000J0D01*
G01*
G37*
%TD*%
%TO.C,R23*%
G36*
G01*
X132375000Y-110650000D02*
X133625000Y-110650000D01*
G75*
G02*
X133875000Y-110900000I0J-250000D01*
G01*
X133875000Y-111700000D01*
G75*
G02*
X133625000Y-111950000I-250000J0D01*
G01*
X132375000Y-111950000D01*
G75*
G02*
X132125000Y-111700000I0J250000D01*
G01*
X132125000Y-110900000D01*
G75*
G02*
X132375000Y-110650000I250000J0D01*
G01*
G37*
G36*
G01*
X132375000Y-113750000D02*
X133625000Y-113750000D01*
G75*
G02*
X133875000Y-114000000I0J-250000D01*
G01*
X133875000Y-114800000D01*
G75*
G02*
X133625000Y-115050000I-250000J0D01*
G01*
X132375000Y-115050000D01*
G75*
G02*
X132125000Y-114800000I0J250000D01*
G01*
X132125000Y-114000000D01*
G75*
G02*
X132375000Y-113750000I250000J0D01*
G01*
G37*
%TD*%
%TO.C,R24*%
G36*
G01*
X111575000Y-113750000D02*
X112825000Y-113750000D01*
G75*
G02*
X113075000Y-114000000I0J-250000D01*
G01*
X113075000Y-114800000D01*
G75*
G02*
X112825000Y-115050000I-250000J0D01*
G01*
X111575000Y-115050000D01*
G75*
G02*
X111325000Y-114800000I0J250000D01*
G01*
X111325000Y-114000000D01*
G75*
G02*
X111575000Y-113750000I250000J0D01*
G01*
G37*
G36*
G01*
X111575000Y-110650000D02*
X112825000Y-110650000D01*
G75*
G02*
X113075000Y-110900000I0J-250000D01*
G01*
X113075000Y-111700000D01*
G75*
G02*
X112825000Y-111950000I-250000J0D01*
G01*
X111575000Y-111950000D01*
G75*
G02*
X111325000Y-111700000I0J250000D01*
G01*
X111325000Y-110900000D01*
G75*
G02*
X111575000Y-110650000I250000J0D01*
G01*
G37*
%TD*%
%TO.C,R25*%
G36*
G01*
X231025000Y-112050000D02*
X229775000Y-112050000D01*
G75*
G02*
X229525000Y-111800000I0J250000D01*
G01*
X229525000Y-111000000D01*
G75*
G02*
X229775000Y-110750000I250000J0D01*
G01*
X231025000Y-110750000D01*
G75*
G02*
X231275000Y-111000000I0J-250000D01*
G01*
X231275000Y-111800000D01*
G75*
G02*
X231025000Y-112050000I-250000J0D01*
G01*
G37*
G36*
G01*
X231025000Y-115150000D02*
X229775000Y-115150000D01*
G75*
G02*
X229525000Y-114900000I0J250000D01*
G01*
X229525000Y-114100000D01*
G75*
G02*
X229775000Y-113850000I250000J0D01*
G01*
X231025000Y-113850000D01*
G75*
G02*
X231275000Y-114100000I0J-250000D01*
G01*
X231275000Y-114900000D01*
G75*
G02*
X231025000Y-115150000I-250000J0D01*
G01*
G37*
%TD*%
%TO.C,R26*%
G36*
G01*
X213325000Y-115150000D02*
X212075000Y-115150000D01*
G75*
G02*
X211825000Y-114900000I0J250000D01*
G01*
X211825000Y-114100000D01*
G75*
G02*
X212075000Y-113850000I250000J0D01*
G01*
X213325000Y-113850000D01*
G75*
G02*
X213575000Y-114100000I0J-250000D01*
G01*
X213575000Y-114900000D01*
G75*
G02*
X213325000Y-115150000I-250000J0D01*
G01*
G37*
G36*
G01*
X213325000Y-112050000D02*
X212075000Y-112050000D01*
G75*
G02*
X211825000Y-111800000I0J250000D01*
G01*
X211825000Y-111000000D01*
G75*
G02*
X212075000Y-110750000I250000J0D01*
G01*
X213325000Y-110750000D01*
G75*
G02*
X213575000Y-111000000I0J-250000D01*
G01*
X213575000Y-111800000D01*
G75*
G02*
X213325000Y-112050000I-250000J0D01*
G01*
G37*
%TD*%
%TO.C,R27*%
G36*
G01*
X232475000Y-110750000D02*
X233725000Y-110750000D01*
G75*
G02*
X233975000Y-111000000I0J-250000D01*
G01*
X233975000Y-111800000D01*
G75*
G02*
X233725000Y-112050000I-250000J0D01*
G01*
X232475000Y-112050000D01*
G75*
G02*
X232225000Y-111800000I0J250000D01*
G01*
X232225000Y-111000000D01*
G75*
G02*
X232475000Y-110750000I250000J0D01*
G01*
G37*
G36*
G01*
X232475000Y-113850000D02*
X233725000Y-113850000D01*
G75*
G02*
X233975000Y-114100000I0J-250000D01*
G01*
X233975000Y-114900000D01*
G75*
G02*
X233725000Y-115150000I-250000J0D01*
G01*
X232475000Y-115150000D01*
G75*
G02*
X232225000Y-114900000I0J250000D01*
G01*
X232225000Y-114100000D01*
G75*
G02*
X232475000Y-113850000I250000J0D01*
G01*
G37*
%TD*%
%TO.C,R28*%
G36*
G01*
X209375000Y-113900000D02*
X210625000Y-113900000D01*
G75*
G02*
X210875000Y-114150000I0J-250000D01*
G01*
X210875000Y-114950000D01*
G75*
G02*
X210625000Y-115200000I-250000J0D01*
G01*
X209375000Y-115200000D01*
G75*
G02*
X209125000Y-114950000I0J250000D01*
G01*
X209125000Y-114150000D01*
G75*
G02*
X209375000Y-113900000I250000J0D01*
G01*
G37*
G36*
G01*
X209375000Y-110800000D02*
X210625000Y-110800000D01*
G75*
G02*
X210875000Y-111050000I0J-250000D01*
G01*
X210875000Y-111850000D01*
G75*
G02*
X210625000Y-112100000I-250000J0D01*
G01*
X209375000Y-112100000D01*
G75*
G02*
X209125000Y-111850000I0J250000D01*
G01*
X209125000Y-111050000D01*
G75*
G02*
X209375000Y-110800000I250000J0D01*
G01*
G37*
%TD*%
M02*
