%TF.GenerationSoftware,KiCad,Pcbnew,(5.1.9-0-10_14)*%
%TF.CreationDate,2021-06-18T00:48:09+02:00*%
%TF.ProjectId,V3,56332e6b-6963-4616-945f-706362585858,rev?*%
%TF.SameCoordinates,Original*%
%TF.FileFunction,Soldermask,Bot*%
%TF.FilePolarity,Negative*%
%FSLAX46Y46*%
G04 Gerber Fmt 4.6, Leading zero omitted, Abs format (unit mm)*
G04 Created by KiCad (PCBNEW (5.1.9-0-10_14)) date 2021-06-18 00:48:09*
%MOMM*%
%LPD*%
G01*
G04 APERTURE LIST*
%ADD10R,1.700000X1.700000*%
%ADD11O,1.700000X1.700000*%
%ADD12C,1.711200*%
%ADD13R,2.600000X2.600000*%
%ADD14C,2.600000*%
G04 APERTURE END LIST*
D10*
%TO.C,J2*%
X97800000Y-107820000D03*
D11*
X100340000Y-107820000D03*
X97800000Y-105280000D03*
X100340000Y-105280000D03*
X97800000Y-102740000D03*
X100340000Y-102740000D03*
X97800000Y-100200000D03*
X100340000Y-100200000D03*
X97800000Y-97660000D03*
X100340000Y-97660000D03*
X97800000Y-95120000D03*
X100340000Y-95120000D03*
X97800000Y-92580000D03*
X100340000Y-92580000D03*
X97800000Y-90040000D03*
X100340000Y-90040000D03*
X97800000Y-87500000D03*
X100340000Y-87500000D03*
X97800000Y-84960000D03*
X100340000Y-84960000D03*
X97800000Y-82420000D03*
X100340000Y-82420000D03*
%TD*%
D12*
%TO.C,U3*%
X129200501Y-64487501D03*
X131740501Y-64487501D03*
X143170501Y-64487501D03*
X140630501Y-64487501D03*
X144440501Y-82267501D03*
X141900501Y-82267501D03*
X128565501Y-82267501D03*
X131105501Y-82267501D03*
X133645501Y-82267501D03*
%TD*%
%TO.C,U4*%
X113215501Y-82267501D03*
X110675501Y-82267501D03*
X108135501Y-82267501D03*
X121470501Y-82267501D03*
X124010501Y-82267501D03*
X120200501Y-64487501D03*
X122740501Y-64487501D03*
X111310501Y-64487501D03*
X108770501Y-64487501D03*
%TD*%
D13*
%TO.C,J1*%
X101500000Y-70700000D03*
D14*
X95500000Y-70700000D03*
X98500000Y-75400000D03*
%TD*%
D12*
%TO.C,U11*%
X219569499Y-129732499D03*
X217029499Y-129732499D03*
X205599499Y-129732499D03*
X208139499Y-129732499D03*
X204329499Y-111952499D03*
X206869499Y-111952499D03*
X220204499Y-111952499D03*
X217664499Y-111952499D03*
X215124499Y-111952499D03*
%TD*%
D11*
%TO.C,LS1*%
X161160000Y-59040000D03*
D10*
X158620000Y-59040000D03*
%TD*%
%TO.C,LS2*%
X170060000Y-59040000D03*
D11*
X172600000Y-59040000D03*
%TD*%
D10*
%TO.C,LS3*%
X179060000Y-59040000D03*
D11*
X181600000Y-59040000D03*
%TD*%
%TO.C,LS4*%
X193000000Y-59040000D03*
D10*
X190460000Y-59040000D03*
%TD*%
D11*
%TO.C,LS5*%
X111300000Y-59100000D03*
D10*
X108760000Y-59100000D03*
%TD*%
D11*
%TO.C,LS6*%
X122740000Y-59100000D03*
D10*
X120200000Y-59100000D03*
%TD*%
D11*
%TO.C,LS7*%
X131740000Y-59100000D03*
D10*
X129200000Y-59100000D03*
%TD*%
%TO.C,LS8*%
X140600000Y-59100000D03*
D11*
X143140000Y-59100000D03*
%TD*%
D10*
%TO.C,LS9*%
X208220000Y-59080000D03*
D11*
X210760000Y-59080000D03*
%TD*%
D10*
%TO.C,LS10*%
X219660000Y-59080000D03*
D11*
X222200000Y-59080000D03*
%TD*%
D10*
%TO.C,LS11*%
X228660000Y-59080000D03*
D11*
X231200000Y-59080000D03*
%TD*%
%TO.C,LS12*%
X242600000Y-59080000D03*
D10*
X240060000Y-59080000D03*
%TD*%
%TO.C,LS13*%
X191110000Y-135160000D03*
D11*
X188570000Y-135160000D03*
%TD*%
%TO.C,LS14*%
X177130000Y-135160000D03*
D10*
X179670000Y-135160000D03*
%TD*%
%TO.C,LS15*%
X170670000Y-135160000D03*
D11*
X168130000Y-135160000D03*
%TD*%
%TO.C,LS16*%
X156730000Y-135160000D03*
D10*
X159270000Y-135160000D03*
%TD*%
%TO.C,LS17*%
X142570000Y-135000000D03*
D11*
X140030000Y-135000000D03*
%TD*%
%TO.C,LS18*%
X128590000Y-135000000D03*
D10*
X131130000Y-135000000D03*
%TD*%
%TO.C,LS19*%
X122130000Y-135000000D03*
D11*
X119590000Y-135000000D03*
%TD*%
%TO.C,LS20*%
X108190000Y-135000000D03*
D10*
X110730000Y-135000000D03*
%TD*%
%TO.C,LS21*%
X240010000Y-135120000D03*
D11*
X237470000Y-135120000D03*
%TD*%
%TO.C,LS22*%
X226030000Y-135120000D03*
D10*
X228570000Y-135120000D03*
%TD*%
%TO.C,LS23*%
X219570000Y-135120000D03*
D11*
X217030000Y-135120000D03*
%TD*%
%TO.C,LS24*%
X205630000Y-135120000D03*
D10*
X208170000Y-135120000D03*
%TD*%
%TO.C,R5*%
G36*
G01*
X188575000Y-77150000D02*
X189825000Y-77150000D01*
G75*
G02*
X190075000Y-77400000I0J-250000D01*
G01*
X190075000Y-78200000D01*
G75*
G02*
X189825000Y-78450000I-250000J0D01*
G01*
X188575000Y-78450000D01*
G75*
G02*
X188325000Y-78200000I0J250000D01*
G01*
X188325000Y-77400000D01*
G75*
G02*
X188575000Y-77150000I250000J0D01*
G01*
G37*
G36*
G01*
X188575000Y-80250000D02*
X189825000Y-80250000D01*
G75*
G02*
X190075000Y-80500000I0J-250000D01*
G01*
X190075000Y-81300000D01*
G75*
G02*
X189825000Y-81550000I-250000J0D01*
G01*
X188575000Y-81550000D01*
G75*
G02*
X188325000Y-81300000I0J250000D01*
G01*
X188325000Y-80500000D01*
G75*
G02*
X188575000Y-80250000I250000J0D01*
G01*
G37*
%TD*%
%TO.C,R6*%
G36*
G01*
X168075000Y-80250000D02*
X169325000Y-80250000D01*
G75*
G02*
X169575000Y-80500000I0J-250000D01*
G01*
X169575000Y-81300000D01*
G75*
G02*
X169325000Y-81550000I-250000J0D01*
G01*
X168075000Y-81550000D01*
G75*
G02*
X167825000Y-81300000I0J250000D01*
G01*
X167825000Y-80500000D01*
G75*
G02*
X168075000Y-80250000I250000J0D01*
G01*
G37*
G36*
G01*
X168075000Y-77150000D02*
X169325000Y-77150000D01*
G75*
G02*
X169575000Y-77400000I0J-250000D01*
G01*
X169575000Y-78200000D01*
G75*
G02*
X169325000Y-78450000I-250000J0D01*
G01*
X168075000Y-78450000D01*
G75*
G02*
X167825000Y-78200000I0J250000D01*
G01*
X167825000Y-77400000D01*
G75*
G02*
X168075000Y-77150000I250000J0D01*
G01*
G37*
%TD*%
%TO.C,R7*%
G36*
G01*
X187325000Y-78450000D02*
X186075000Y-78450000D01*
G75*
G02*
X185825000Y-78200000I0J250000D01*
G01*
X185825000Y-77400000D01*
G75*
G02*
X186075000Y-77150000I250000J0D01*
G01*
X187325000Y-77150000D01*
G75*
G02*
X187575000Y-77400000I0J-250000D01*
G01*
X187575000Y-78200000D01*
G75*
G02*
X187325000Y-78450000I-250000J0D01*
G01*
G37*
G36*
G01*
X187325000Y-81550000D02*
X186075000Y-81550000D01*
G75*
G02*
X185825000Y-81300000I0J250000D01*
G01*
X185825000Y-80500000D01*
G75*
G02*
X186075000Y-80250000I250000J0D01*
G01*
X187325000Y-80250000D01*
G75*
G02*
X187575000Y-80500000I0J-250000D01*
G01*
X187575000Y-81300000D01*
G75*
G02*
X187325000Y-81550000I-250000J0D01*
G01*
G37*
%TD*%
%TO.C,R8*%
G36*
G01*
X166825000Y-81450000D02*
X165575000Y-81450000D01*
G75*
G02*
X165325000Y-81200000I0J250000D01*
G01*
X165325000Y-80400000D01*
G75*
G02*
X165575000Y-80150000I250000J0D01*
G01*
X166825000Y-80150000D01*
G75*
G02*
X167075000Y-80400000I0J-250000D01*
G01*
X167075000Y-81200000D01*
G75*
G02*
X166825000Y-81450000I-250000J0D01*
G01*
G37*
G36*
G01*
X166825000Y-78350000D02*
X165575000Y-78350000D01*
G75*
G02*
X165325000Y-78100000I0J250000D01*
G01*
X165325000Y-77300000D01*
G75*
G02*
X165575000Y-77050000I250000J0D01*
G01*
X166825000Y-77050000D01*
G75*
G02*
X167075000Y-77300000I0J-250000D01*
G01*
X167075000Y-78100000D01*
G75*
G02*
X166825000Y-78350000I-250000J0D01*
G01*
G37*
%TD*%
%TO.C,R9*%
G36*
G01*
X138475000Y-80250000D02*
X139725000Y-80250000D01*
G75*
G02*
X139975000Y-80500000I0J-250000D01*
G01*
X139975000Y-81300000D01*
G75*
G02*
X139725000Y-81550000I-250000J0D01*
G01*
X138475000Y-81550000D01*
G75*
G02*
X138225000Y-81300000I0J250000D01*
G01*
X138225000Y-80500000D01*
G75*
G02*
X138475000Y-80250000I250000J0D01*
G01*
G37*
G36*
G01*
X138475000Y-77150000D02*
X139725000Y-77150000D01*
G75*
G02*
X139975000Y-77400000I0J-250000D01*
G01*
X139975000Y-78200000D01*
G75*
G02*
X139725000Y-78450000I-250000J0D01*
G01*
X138475000Y-78450000D01*
G75*
G02*
X138225000Y-78200000I0J250000D01*
G01*
X138225000Y-77400000D01*
G75*
G02*
X138475000Y-77150000I250000J0D01*
G01*
G37*
%TD*%
%TO.C,R10*%
G36*
G01*
X118475000Y-77400000D02*
X119725000Y-77400000D01*
G75*
G02*
X119975000Y-77650000I0J-250000D01*
G01*
X119975000Y-78450000D01*
G75*
G02*
X119725000Y-78700000I-250000J0D01*
G01*
X118475000Y-78700000D01*
G75*
G02*
X118225000Y-78450000I0J250000D01*
G01*
X118225000Y-77650000D01*
G75*
G02*
X118475000Y-77400000I250000J0D01*
G01*
G37*
G36*
G01*
X118475000Y-80500000D02*
X119725000Y-80500000D01*
G75*
G02*
X119975000Y-80750000I0J-250000D01*
G01*
X119975000Y-81550000D01*
G75*
G02*
X119725000Y-81800000I-250000J0D01*
G01*
X118475000Y-81800000D01*
G75*
G02*
X118225000Y-81550000I0J250000D01*
G01*
X118225000Y-80750000D01*
G75*
G02*
X118475000Y-80500000I250000J0D01*
G01*
G37*
%TD*%
%TO.C,R11*%
G36*
G01*
X137225000Y-81550000D02*
X135975000Y-81550000D01*
G75*
G02*
X135725000Y-81300000I0J250000D01*
G01*
X135725000Y-80500000D01*
G75*
G02*
X135975000Y-80250000I250000J0D01*
G01*
X137225000Y-80250000D01*
G75*
G02*
X137475000Y-80500000I0J-250000D01*
G01*
X137475000Y-81300000D01*
G75*
G02*
X137225000Y-81550000I-250000J0D01*
G01*
G37*
G36*
G01*
X137225000Y-78450000D02*
X135975000Y-78450000D01*
G75*
G02*
X135725000Y-78200000I0J250000D01*
G01*
X135725000Y-77400000D01*
G75*
G02*
X135975000Y-77150000I250000J0D01*
G01*
X137225000Y-77150000D01*
G75*
G02*
X137475000Y-77400000I0J-250000D01*
G01*
X137475000Y-78200000D01*
G75*
G02*
X137225000Y-78450000I-250000J0D01*
G01*
G37*
%TD*%
%TO.C,R12*%
G36*
G01*
X117225000Y-78700000D02*
X115975000Y-78700000D01*
G75*
G02*
X115725000Y-78450000I0J250000D01*
G01*
X115725000Y-77650000D01*
G75*
G02*
X115975000Y-77400000I250000J0D01*
G01*
X117225000Y-77400000D01*
G75*
G02*
X117475000Y-77650000I0J-250000D01*
G01*
X117475000Y-78450000D01*
G75*
G02*
X117225000Y-78700000I-250000J0D01*
G01*
G37*
G36*
G01*
X117225000Y-81800000D02*
X115975000Y-81800000D01*
G75*
G02*
X115725000Y-81550000I0J250000D01*
G01*
X115725000Y-80750000D01*
G75*
G02*
X115975000Y-80500000I250000J0D01*
G01*
X117225000Y-80500000D01*
G75*
G02*
X117475000Y-80750000I0J-250000D01*
G01*
X117475000Y-81550000D01*
G75*
G02*
X117225000Y-81800000I-250000J0D01*
G01*
G37*
%TD*%
%TO.C,R13*%
G36*
G01*
X237775000Y-79900000D02*
X239025000Y-79900000D01*
G75*
G02*
X239275000Y-80150000I0J-250000D01*
G01*
X239275000Y-80950000D01*
G75*
G02*
X239025000Y-81200000I-250000J0D01*
G01*
X237775000Y-81200000D01*
G75*
G02*
X237525000Y-80950000I0J250000D01*
G01*
X237525000Y-80150000D01*
G75*
G02*
X237775000Y-79900000I250000J0D01*
G01*
G37*
G36*
G01*
X237775000Y-76800000D02*
X239025000Y-76800000D01*
G75*
G02*
X239275000Y-77050000I0J-250000D01*
G01*
X239275000Y-77850000D01*
G75*
G02*
X239025000Y-78100000I-250000J0D01*
G01*
X237775000Y-78100000D01*
G75*
G02*
X237525000Y-77850000I0J250000D01*
G01*
X237525000Y-77050000D01*
G75*
G02*
X237775000Y-76800000I250000J0D01*
G01*
G37*
%TD*%
%TO.C,R14*%
G36*
G01*
X217275000Y-76600000D02*
X218525000Y-76600000D01*
G75*
G02*
X218775000Y-76850000I0J-250000D01*
G01*
X218775000Y-77650000D01*
G75*
G02*
X218525000Y-77900000I-250000J0D01*
G01*
X217275000Y-77900000D01*
G75*
G02*
X217025000Y-77650000I0J250000D01*
G01*
X217025000Y-76850000D01*
G75*
G02*
X217275000Y-76600000I250000J0D01*
G01*
G37*
G36*
G01*
X217275000Y-79700000D02*
X218525000Y-79700000D01*
G75*
G02*
X218775000Y-79950000I0J-250000D01*
G01*
X218775000Y-80750000D01*
G75*
G02*
X218525000Y-81000000I-250000J0D01*
G01*
X217275000Y-81000000D01*
G75*
G02*
X217025000Y-80750000I0J250000D01*
G01*
X217025000Y-79950000D01*
G75*
G02*
X217275000Y-79700000I250000J0D01*
G01*
G37*
%TD*%
%TO.C,R15*%
G36*
G01*
X236425000Y-81200000D02*
X235175000Y-81200000D01*
G75*
G02*
X234925000Y-80950000I0J250000D01*
G01*
X234925000Y-80150000D01*
G75*
G02*
X235175000Y-79900000I250000J0D01*
G01*
X236425000Y-79900000D01*
G75*
G02*
X236675000Y-80150000I0J-250000D01*
G01*
X236675000Y-80950000D01*
G75*
G02*
X236425000Y-81200000I-250000J0D01*
G01*
G37*
G36*
G01*
X236425000Y-78100000D02*
X235175000Y-78100000D01*
G75*
G02*
X234925000Y-77850000I0J250000D01*
G01*
X234925000Y-77050000D01*
G75*
G02*
X235175000Y-76800000I250000J0D01*
G01*
X236425000Y-76800000D01*
G75*
G02*
X236675000Y-77050000I0J-250000D01*
G01*
X236675000Y-77850000D01*
G75*
G02*
X236425000Y-78100000I-250000J0D01*
G01*
G37*
%TD*%
%TO.C,R16*%
G36*
G01*
X216025000Y-77900000D02*
X214775000Y-77900000D01*
G75*
G02*
X214525000Y-77650000I0J250000D01*
G01*
X214525000Y-76850000D01*
G75*
G02*
X214775000Y-76600000I250000J0D01*
G01*
X216025000Y-76600000D01*
G75*
G02*
X216275000Y-76850000I0J-250000D01*
G01*
X216275000Y-77650000D01*
G75*
G02*
X216025000Y-77900000I-250000J0D01*
G01*
G37*
G36*
G01*
X216025000Y-81000000D02*
X214775000Y-81000000D01*
G75*
G02*
X214525000Y-80750000I0J250000D01*
G01*
X214525000Y-79950000D01*
G75*
G02*
X214775000Y-79700000I250000J0D01*
G01*
X216025000Y-79700000D01*
G75*
G02*
X216275000Y-79950000I0J-250000D01*
G01*
X216275000Y-80750000D01*
G75*
G02*
X216025000Y-81000000I-250000J0D01*
G01*
G37*
%TD*%
%TO.C,R17*%
G36*
G01*
X181925000Y-112050000D02*
X180675000Y-112050000D01*
G75*
G02*
X180425000Y-111800000I0J250000D01*
G01*
X180425000Y-111000000D01*
G75*
G02*
X180675000Y-110750000I250000J0D01*
G01*
X181925000Y-110750000D01*
G75*
G02*
X182175000Y-111000000I0J-250000D01*
G01*
X182175000Y-111800000D01*
G75*
G02*
X181925000Y-112050000I-250000J0D01*
G01*
G37*
G36*
G01*
X181925000Y-115150000D02*
X180675000Y-115150000D01*
G75*
G02*
X180425000Y-114900000I0J250000D01*
G01*
X180425000Y-114100000D01*
G75*
G02*
X180675000Y-113850000I250000J0D01*
G01*
X181925000Y-113850000D01*
G75*
G02*
X182175000Y-114100000I0J-250000D01*
G01*
X182175000Y-114900000D01*
G75*
G02*
X181925000Y-115150000I-250000J0D01*
G01*
G37*
%TD*%
%TO.C,R18*%
G36*
G01*
X163925000Y-115250000D02*
X162675000Y-115250000D01*
G75*
G02*
X162425000Y-115000000I0J250000D01*
G01*
X162425000Y-114200000D01*
G75*
G02*
X162675000Y-113950000I250000J0D01*
G01*
X163925000Y-113950000D01*
G75*
G02*
X164175000Y-114200000I0J-250000D01*
G01*
X164175000Y-115000000D01*
G75*
G02*
X163925000Y-115250000I-250000J0D01*
G01*
G37*
G36*
G01*
X163925000Y-112150000D02*
X162675000Y-112150000D01*
G75*
G02*
X162425000Y-111900000I0J250000D01*
G01*
X162425000Y-111100000D01*
G75*
G02*
X162675000Y-110850000I250000J0D01*
G01*
X163925000Y-110850000D01*
G75*
G02*
X164175000Y-111100000I0J-250000D01*
G01*
X164175000Y-111900000D01*
G75*
G02*
X163925000Y-112150000I-250000J0D01*
G01*
G37*
%TD*%
%TO.C,R19*%
G36*
G01*
X183175000Y-110850000D02*
X184425000Y-110850000D01*
G75*
G02*
X184675000Y-111100000I0J-250000D01*
G01*
X184675000Y-111900000D01*
G75*
G02*
X184425000Y-112150000I-250000J0D01*
G01*
X183175000Y-112150000D01*
G75*
G02*
X182925000Y-111900000I0J250000D01*
G01*
X182925000Y-111100000D01*
G75*
G02*
X183175000Y-110850000I250000J0D01*
G01*
G37*
G36*
G01*
X183175000Y-113950000D02*
X184425000Y-113950000D01*
G75*
G02*
X184675000Y-114200000I0J-250000D01*
G01*
X184675000Y-115000000D01*
G75*
G02*
X184425000Y-115250000I-250000J0D01*
G01*
X183175000Y-115250000D01*
G75*
G02*
X182925000Y-115000000I0J250000D01*
G01*
X182925000Y-114200000D01*
G75*
G02*
X183175000Y-113950000I250000J0D01*
G01*
G37*
%TD*%
%TO.C,R20*%
G36*
G01*
X159975000Y-113850000D02*
X161225000Y-113850000D01*
G75*
G02*
X161475000Y-114100000I0J-250000D01*
G01*
X161475000Y-114900000D01*
G75*
G02*
X161225000Y-115150000I-250000J0D01*
G01*
X159975000Y-115150000D01*
G75*
G02*
X159725000Y-114900000I0J250000D01*
G01*
X159725000Y-114100000D01*
G75*
G02*
X159975000Y-113850000I250000J0D01*
G01*
G37*
G36*
G01*
X159975000Y-110750000D02*
X161225000Y-110750000D01*
G75*
G02*
X161475000Y-111000000I0J-250000D01*
G01*
X161475000Y-111800000D01*
G75*
G02*
X161225000Y-112050000I-250000J0D01*
G01*
X159975000Y-112050000D01*
G75*
G02*
X159725000Y-111800000I0J250000D01*
G01*
X159725000Y-111000000D01*
G75*
G02*
X159975000Y-110750000I250000J0D01*
G01*
G37*
%TD*%
%TO.C,R21*%
G36*
G01*
X136225000Y-111950000D02*
X134975000Y-111950000D01*
G75*
G02*
X134725000Y-111700000I0J250000D01*
G01*
X134725000Y-110900000D01*
G75*
G02*
X134975000Y-110650000I250000J0D01*
G01*
X136225000Y-110650000D01*
G75*
G02*
X136475000Y-110900000I0J-250000D01*
G01*
X136475000Y-111700000D01*
G75*
G02*
X136225000Y-111950000I-250000J0D01*
G01*
G37*
G36*
G01*
X136225000Y-115050000D02*
X134975000Y-115050000D01*
G75*
G02*
X134725000Y-114800000I0J250000D01*
G01*
X134725000Y-114000000D01*
G75*
G02*
X134975000Y-113750000I250000J0D01*
G01*
X136225000Y-113750000D01*
G75*
G02*
X136475000Y-114000000I0J-250000D01*
G01*
X136475000Y-114800000D01*
G75*
G02*
X136225000Y-115050000I-250000J0D01*
G01*
G37*
%TD*%
%TO.C,R22*%
G36*
G01*
X115325000Y-115050000D02*
X114075000Y-115050000D01*
G75*
G02*
X113825000Y-114800000I0J250000D01*
G01*
X113825000Y-114000000D01*
G75*
G02*
X114075000Y-113750000I250000J0D01*
G01*
X115325000Y-113750000D01*
G75*
G02*
X115575000Y-114000000I0J-250000D01*
G01*
X115575000Y-114800000D01*
G75*
G02*
X115325000Y-115050000I-250000J0D01*
G01*
G37*
G36*
G01*
X115325000Y-111950000D02*
X114075000Y-111950000D01*
G75*
G02*
X113825000Y-111700000I0J250000D01*
G01*
X113825000Y-110900000D01*
G75*
G02*
X114075000Y-110650000I250000J0D01*
G01*
X115325000Y-110650000D01*
G75*
G02*
X115575000Y-110900000I0J-250000D01*
G01*
X115575000Y-111700000D01*
G75*
G02*
X115325000Y-111950000I-250000J0D01*
G01*
G37*
%TD*%
%TO.C,R23*%
G36*
G01*
X132375000Y-110650000D02*
X133625000Y-110650000D01*
G75*
G02*
X133875000Y-110900000I0J-250000D01*
G01*
X133875000Y-111700000D01*
G75*
G02*
X133625000Y-111950000I-250000J0D01*
G01*
X132375000Y-111950000D01*
G75*
G02*
X132125000Y-111700000I0J250000D01*
G01*
X132125000Y-110900000D01*
G75*
G02*
X132375000Y-110650000I250000J0D01*
G01*
G37*
G36*
G01*
X132375000Y-113750000D02*
X133625000Y-113750000D01*
G75*
G02*
X133875000Y-114000000I0J-250000D01*
G01*
X133875000Y-114800000D01*
G75*
G02*
X133625000Y-115050000I-250000J0D01*
G01*
X132375000Y-115050000D01*
G75*
G02*
X132125000Y-114800000I0J250000D01*
G01*
X132125000Y-114000000D01*
G75*
G02*
X132375000Y-113750000I250000J0D01*
G01*
G37*
%TD*%
%TO.C,R24*%
G36*
G01*
X111575000Y-113750000D02*
X112825000Y-113750000D01*
G75*
G02*
X113075000Y-114000000I0J-250000D01*
G01*
X113075000Y-114800000D01*
G75*
G02*
X112825000Y-115050000I-250000J0D01*
G01*
X111575000Y-115050000D01*
G75*
G02*
X111325000Y-114800000I0J250000D01*
G01*
X111325000Y-114000000D01*
G75*
G02*
X111575000Y-113750000I250000J0D01*
G01*
G37*
G36*
G01*
X111575000Y-110650000D02*
X112825000Y-110650000D01*
G75*
G02*
X113075000Y-110900000I0J-250000D01*
G01*
X113075000Y-111700000D01*
G75*
G02*
X112825000Y-111950000I-250000J0D01*
G01*
X111575000Y-111950000D01*
G75*
G02*
X111325000Y-111700000I0J250000D01*
G01*
X111325000Y-110900000D01*
G75*
G02*
X111575000Y-110650000I250000J0D01*
G01*
G37*
%TD*%
%TO.C,R25*%
G36*
G01*
X231025000Y-112050000D02*
X229775000Y-112050000D01*
G75*
G02*
X229525000Y-111800000I0J250000D01*
G01*
X229525000Y-111000000D01*
G75*
G02*
X229775000Y-110750000I250000J0D01*
G01*
X231025000Y-110750000D01*
G75*
G02*
X231275000Y-111000000I0J-250000D01*
G01*
X231275000Y-111800000D01*
G75*
G02*
X231025000Y-112050000I-250000J0D01*
G01*
G37*
G36*
G01*
X231025000Y-115150000D02*
X229775000Y-115150000D01*
G75*
G02*
X229525000Y-114900000I0J250000D01*
G01*
X229525000Y-114100000D01*
G75*
G02*
X229775000Y-113850000I250000J0D01*
G01*
X231025000Y-113850000D01*
G75*
G02*
X231275000Y-114100000I0J-250000D01*
G01*
X231275000Y-114900000D01*
G75*
G02*
X231025000Y-115150000I-250000J0D01*
G01*
G37*
%TD*%
%TO.C,R26*%
G36*
G01*
X213325000Y-115150000D02*
X212075000Y-115150000D01*
G75*
G02*
X211825000Y-114900000I0J250000D01*
G01*
X211825000Y-114100000D01*
G75*
G02*
X212075000Y-113850000I250000J0D01*
G01*
X213325000Y-113850000D01*
G75*
G02*
X213575000Y-114100000I0J-250000D01*
G01*
X213575000Y-114900000D01*
G75*
G02*
X213325000Y-115150000I-250000J0D01*
G01*
G37*
G36*
G01*
X213325000Y-112050000D02*
X212075000Y-112050000D01*
G75*
G02*
X211825000Y-111800000I0J250000D01*
G01*
X211825000Y-111000000D01*
G75*
G02*
X212075000Y-110750000I250000J0D01*
G01*
X213325000Y-110750000D01*
G75*
G02*
X213575000Y-111000000I0J-250000D01*
G01*
X213575000Y-111800000D01*
G75*
G02*
X213325000Y-112050000I-250000J0D01*
G01*
G37*
%TD*%
%TO.C,R27*%
G36*
G01*
X232475000Y-110750000D02*
X233725000Y-110750000D01*
G75*
G02*
X233975000Y-111000000I0J-250000D01*
G01*
X233975000Y-111800000D01*
G75*
G02*
X233725000Y-112050000I-250000J0D01*
G01*
X232475000Y-112050000D01*
G75*
G02*
X232225000Y-111800000I0J250000D01*
G01*
X232225000Y-111000000D01*
G75*
G02*
X232475000Y-110750000I250000J0D01*
G01*
G37*
G36*
G01*
X232475000Y-113850000D02*
X233725000Y-113850000D01*
G75*
G02*
X233975000Y-114100000I0J-250000D01*
G01*
X233975000Y-114900000D01*
G75*
G02*
X233725000Y-115150000I-250000J0D01*
G01*
X232475000Y-115150000D01*
G75*
G02*
X232225000Y-114900000I0J250000D01*
G01*
X232225000Y-114100000D01*
G75*
G02*
X232475000Y-113850000I250000J0D01*
G01*
G37*
%TD*%
%TO.C,R28*%
G36*
G01*
X209375000Y-113900000D02*
X210625000Y-113900000D01*
G75*
G02*
X210875000Y-114150000I0J-250000D01*
G01*
X210875000Y-114950000D01*
G75*
G02*
X210625000Y-115200000I-250000J0D01*
G01*
X209375000Y-115200000D01*
G75*
G02*
X209125000Y-114950000I0J250000D01*
G01*
X209125000Y-114150000D01*
G75*
G02*
X209375000Y-113900000I250000J0D01*
G01*
G37*
G36*
G01*
X209375000Y-110800000D02*
X210625000Y-110800000D01*
G75*
G02*
X210875000Y-111050000I0J-250000D01*
G01*
X210875000Y-111850000D01*
G75*
G02*
X210625000Y-112100000I-250000J0D01*
G01*
X209375000Y-112100000D01*
G75*
G02*
X209125000Y-111850000I0J250000D01*
G01*
X209125000Y-111050000D01*
G75*
G02*
X209375000Y-110800000I250000J0D01*
G01*
G37*
%TD*%
D12*
%TO.C,U1*%
X179060501Y-64427501D03*
X181600501Y-64427501D03*
X193030501Y-64427501D03*
X190490501Y-64427501D03*
X194300501Y-82207501D03*
X191760501Y-82207501D03*
X178425501Y-82207501D03*
X180965501Y-82207501D03*
X183505501Y-82207501D03*
%TD*%
%TO.C,U2*%
X163075501Y-82207501D03*
X160535501Y-82207501D03*
X157995501Y-82207501D03*
X171330501Y-82207501D03*
X173870501Y-82207501D03*
X170060501Y-64427501D03*
X172600501Y-64427501D03*
X161170501Y-64427501D03*
X158630501Y-64427501D03*
%TD*%
%TO.C,U5*%
X233105501Y-82247501D03*
X230565501Y-82247501D03*
X228025501Y-82247501D03*
X241360501Y-82247501D03*
X243900501Y-82247501D03*
X240090501Y-64467501D03*
X242630501Y-64467501D03*
X231200501Y-64467501D03*
X228660501Y-64467501D03*
%TD*%
%TO.C,U6*%
X208230501Y-64467501D03*
X210770501Y-64467501D03*
X222200501Y-64467501D03*
X219660501Y-64467501D03*
X223470501Y-82247501D03*
X220930501Y-82247501D03*
X207595501Y-82247501D03*
X210135501Y-82247501D03*
X212675501Y-82247501D03*
%TD*%
%TO.C,U7*%
X166224499Y-111992499D03*
X168764499Y-111992499D03*
X171304499Y-111992499D03*
X157969499Y-111992499D03*
X155429499Y-111992499D03*
X159239499Y-129772499D03*
X156699499Y-129772499D03*
X168129499Y-129772499D03*
X170669499Y-129772499D03*
%TD*%
%TO.C,U8*%
X191099499Y-129772499D03*
X188559499Y-129772499D03*
X177129499Y-129772499D03*
X179669499Y-129772499D03*
X175859499Y-111992499D03*
X178399499Y-111992499D03*
X191734499Y-111992499D03*
X189194499Y-111992499D03*
X186654499Y-111992499D03*
%TD*%
%TO.C,U9*%
X122129499Y-129612499D03*
X119589499Y-129612499D03*
X108159499Y-129612499D03*
X110699499Y-129612499D03*
X106889499Y-111832499D03*
X109429499Y-111832499D03*
X122764499Y-111832499D03*
X120224499Y-111832499D03*
X117684499Y-111832499D03*
%TD*%
%TO.C,U10*%
X138114499Y-111832499D03*
X140654499Y-111832499D03*
X143194499Y-111832499D03*
X129859499Y-111832499D03*
X127319499Y-111832499D03*
X131129499Y-129612499D03*
X128589499Y-129612499D03*
X140019499Y-129612499D03*
X142559499Y-129612499D03*
%TD*%
%TO.C,U12*%
X235554499Y-111952499D03*
X238094499Y-111952499D03*
X240634499Y-111952499D03*
X227299499Y-111952499D03*
X224759499Y-111952499D03*
X228569499Y-129732499D03*
X226029499Y-129732499D03*
X237459499Y-129732499D03*
X239999499Y-129732499D03*
%TD*%
M02*
